<svg xmlns="http://www.w3.org/2000/svg" xmlns:xlink="http://www.w3.org/1999/xlink" zoomAndPan="magnify" fill="#fff" viewBox="0 0 432 287.999989" height="85" preserveAspectRatio="xMidYMid meet" version="1.0"><defs><g/><clipPath id="720d5fa872"><path d="M 157.9375 59 L 274 59 L 274 183.972656 L 157.9375 183.972656 Z M 157.9375 59 " clip-rule="nonzero"/></clipPath></defs><g  fill-opacity="1"><g transform="translate(137.130059, 239.649662)"><g><path d="M 3.59375 -33.359375 L 9.078125 -33.359375 L 9.078125 -4.171875 L 20.359375 -4.171875 L 20.359375 0 L 3.59375 0 Z M 3.59375 -33.359375 "/></g></g></g><g  fill-opacity="1"><g transform="translate(158.442023, 239.649662)"><g><path d="M 18.8125 -4.609375 C 22.175781 -4.609375 24.921875 -5.71875 27.046875 -7.9375 C 29.171875 -10.164062 30.234375 -13.09375 30.234375 -16.71875 C 30.234375 -20.351562 29.171875 -23.273438 27.046875 -25.484375 C 24.921875 -27.691406 22.175781 -28.796875 18.8125 -28.796875 C 15.457031 -28.796875 12.710938 -27.691406 10.578125 -25.484375 C 8.453125 -23.273438 7.390625 -20.351562 7.390625 -16.71875 C 7.390625 -13.09375 8.453125 -10.164062 10.578125 -7.9375 C 12.710938 -5.71875 15.457031 -4.609375 18.8125 -4.609375 Z M 18.828125 0.34375 C 14.046875 0.34375 10.007812 -1.265625 6.71875 -4.484375 C 3.425781 -7.703125 1.78125 -11.78125 1.78125 -16.71875 C 1.78125 -21.664062 3.425781 -25.75 6.71875 -28.96875 C 10.007812 -32.1875 14.046875 -33.796875 18.828125 -33.796875 C 23.617188 -33.796875 27.65625 -32.1875 30.9375 -28.96875 C 34.21875 -25.75 35.859375 -21.664062 35.859375 -16.71875 C 35.859375 -11.78125 34.21875 -7.703125 30.9375 -4.484375 C 27.65625 -1.265625 23.617188 0.34375 18.828125 0.34375 Z M 18.828125 0.34375 "/></g></g></g><g  fill-opacity="1"><g transform="translate(196.07396, 239.649662)"><g><path d="M 18.5 0.28125 C 13.9375 0.28125 10.007812 -1.316406 6.71875 -4.515625 C 3.425781 -7.710938 1.78125 -11.78125 1.78125 -16.71875 C 1.78125 -21.664062 3.425781 -25.75 6.71875 -28.96875 C 10.007812 -32.1875 14.039062 -33.796875 18.8125 -33.796875 C 22.363281 -33.796875 25.523438 -32.921875 28.296875 -31.171875 C 31.066406 -29.429688 33.070312 -26.960938 34.3125 -23.765625 L 27.75 -23.765625 C 25.957031 -27.117188 22.976562 -28.796875 18.8125 -28.796875 C 15.457031 -28.796875 12.710938 -27.691406 10.578125 -25.484375 C 8.453125 -23.273438 7.390625 -20.351562 7.390625 -16.71875 C 7.390625 -13.09375 8.453125 -10.175781 10.578125 -7.96875 C 12.710938 -5.757812 15.363281 -4.65625 18.53125 -4.65625 C 21.695312 -4.65625 24.210938 -5.492188 26.078125 -7.171875 C 27.953125 -8.859375 29.082031 -11.140625 29.46875 -14.015625 L 16.9375 -14.015625 L 16.9375 -18.28125 L 35.328125 -18.28125 L 35.328125 -14.015625 C 34.816406 -10.015625 33.023438 -6.628906 29.953125 -3.859375 C 26.878906 -1.097656 23.0625 0.28125 18.5 0.28125 Z M 18.5 0.28125 "/></g></g></g><g  fill-opacity="1"><g transform="translate(233.177888, 239.649662)"><g/></g></g><g  fill-opacity="1"><g transform="translate(247.577862, 239.649662)"><g><path d="M 3.59375 0 L 3.59375 -33.359375 L 9.078125 -33.359375 L 9.078125 0 Z M 3.59375 0 "/></g></g></g><g  fill-opacity="1"><g transform="translate(260.249835, 239.649662)"><g><path d="M 25.53125 -33.40625 L 31.015625 -33.40625 L 31.015625 0 L 25.53125 0 L 9.078125 -24.90625 L 9.078125 0 L 3.59375 0 L 3.59375 -33.40625 L 9.078125 -33.40625 L 25.53125 -8.546875 Z M 25.53125 -33.40625 "/></g></g></g><g clip-path="url(#720d5fa872)"><path  d="M 202.308594 59.1875 C 187.644531 59.1875 175.6875 71.152344 175.6875 85.824219 C 175.6875 100.5 187.644531 112.464844 202.308594 112.464844 C 216.972656 112.464844 228.929688 100.5 228.929688 85.824219 C 228.929688 71.152344 216.972656 59.1875 202.308594 59.1875 Z M 202.308594 112.464844 C 177.835938 112.464844 157.9375 132.375 157.9375 156.867188 L 166.8125 156.867188 C 166.8125 137.265625 182.722656 121.347656 202.308594 121.347656 C 210.558594 121.347656 218.046875 124.292969 224.078125 128.976562 L 230.285156 122.664062 C 222.621094 116.421875 212.953125 112.464844 202.308594 112.464844 Z M 202.308594 68.066406 C 212.152344 68.066406 220.058594 75.972656 220.058594 85.824219 C 220.058594 95.675781 212.152344 103.585938 202.308594 103.585938 C 192.464844 103.585938 184.5625 95.675781 184.5625 85.824219 C 184.5625 75.972656 192.464844 68.066406 202.308594 68.066406 Z M 257.355469 112.5 C 254.480469 112.535156 251.601562 113.644531 249.453125 115.863281 L 208.0625 157.976562 L 201.894531 183.921875 L 227.820312 177.78125 L 228.6875 176.878906 L 269.9375 136.332031 C 274.339844 132.03125 274.410156 124.78125 270.007812 120.410156 L 265.363281 115.726562 C 263.179688 113.542969 260.269531 112.464844 257.355469 112.5 Z M 257.425781 121.3125 C 258.015625 121.3125 258.605469 121.554688 259.089844 122.039062 L 263.734375 126.6875 C 264.703125 127.625 264.703125 129.046875 263.734375 130.019531 L 223.386719 169.664062 L 213.816406 171.988281 L 216.105469 162.414062 L 255.796875 122.039062 C 256.246094 121.554688 256.835938 121.3125 257.425781 121.3125 Z M 257.425781 121.3125 " fill-opacity="1" fill-rule="nonzero"/></g></svg>