<svg xmlns="http://www.w3.org/2000/svg" xmlns:xlink="http://www.w3.org/1999/xlink" zoomAndPan="magnify" fill="#fff" viewBox="0 0 432 287.999989" height="85" preserveAspectRatio="xMidYMid meet" version="1.0"><defs><g/><clipPath id="5e30e7540d"><path d="M 179 47.164062 L 259.910156 47.164062 L 259.910156 163.414062 L 179 163.414062 Z M 179 47.164062 " clip-rule="nonzero"/></clipPath><clipPath id="5fe7507041"><path d="M 143.660156 82 L 234 82 L 234 128 L 143.660156 128 Z M 143.660156 82 " clip-rule="nonzero"/></clipPath></defs><g clip-path="url(#5e30e7540d)"><path  d="M 255.980469 51.09375 C 253.464844 48.578125 250.058594 47.144531 246.496094 47.164062 L 192.84375 47.164062 C 185.488281 47.179688 179.445312 53.222656 179.429688 60.574219 L 179.429688 87.402344 C 179.429688 89.847656 181.453125 91.875 183.898438 91.875 C 186.34375 91.875 188.371094 89.847656 188.371094 87.402344 L 188.371094 60.574219 C 188.371094 58.128906 190.398438 56.105469 192.84375 56.105469 L 246.496094 56.105469 C 248.941406 56.105469 250.96875 58.128906 250.96875 60.574219 L 250.96875 150 C 250.96875 152.460938 248.941406 154.46875 246.496094 154.46875 L 192.84375 154.46875 C 190.398438 154.46875 188.371094 152.445312 188.371094 150 L 188.371094 123.171875 C 188.371094 120.726562 186.34375 118.699219 183.898438 118.699219 C 181.453125 118.699219 179.429688 120.726562 179.429688 123.171875 L 179.429688 150 C 179.445312 157.351562 185.488281 163.414062 192.84375 163.414062 L 246.496094 163.414062 C 250.058594 163.414062 253.464844 161.996094 255.980469 159.484375 C 258.496094 156.96875 259.890625 153.542969 259.910156 150 L 259.910156 60.574219 C 259.890625 57.03125 258.496094 53.605469 255.980469 51.09375 " fill-opacity="1" fill-rule="nonzero"/></g><g clip-path="url(#5fe7507041)"><path  d="M 207.566406 120.011719 C 206.691406 120.847656 206.203125 122.019531 206.203125 123.222656 C 206.203125 125.6875 208.210938 127.695312 210.675781 127.695312 C 211.878906 127.695312 213.050781 127.207031 213.886719 126.332031 L 231.773438 108.449219 C 233.5 106.71875 233.5 103.855469 231.773438 102.125 L 213.886719 84.242188 C 213.050781 83.4375 211.933594 82.984375 210.777344 82.984375 C 208.335938 82.984375 206.308594 85.011719 206.308594 87.457031 C 206.308594 88.609375 206.761719 89.726562 207.566406 90.5625 L 217.816406 100.816406 L 148.128906 100.816406 C 145.667969 100.816406 143.660156 102.84375 143.660156 105.289062 C 143.660156 107.734375 145.667969 109.757812 148.128906 109.757812 L 217.816406 109.757812 L 207.566406 120.011719 " fill-opacity="1" fill-rule="nonzero"/></g><g  fill-opacity="1"><g transform="translate(112.386739, 228.205529)"><g><path d="M 9.078125 -13.53125 L 9.078125 0 L 3.59375 0 L 3.59375 -33.359375 L 15.125 -33.359375 C 18.894531 -33.359375 21.800781 -32.421875 23.84375 -30.546875 C 25.894531 -28.679688 26.921875 -26.304688 26.921875 -23.421875 C 26.921875 -21.179688 26.238281 -19.164062 24.875 -17.375 C 23.519531 -15.582031 21.4375 -14.414062 18.625 -13.875 L 27.453125 0 L 20.78125 0 L 12.4375 -13.53125 Z M 9.078125 -29.09375 L 9.078125 -17.8125 L 15.125 -17.8125 C 17.195312 -17.8125 18.742188 -18.304688 19.765625 -19.296875 C 20.796875 -20.285156 21.3125 -21.664062 21.3125 -23.4375 C 21.3125 -25.21875 20.796875 -26.601562 19.765625 -27.59375 C 18.742188 -28.59375 17.195312 -29.09375 15.125 -29.09375 Z M 9.078125 -29.09375 "/></g></g></g><g  fill-opacity="1"><g transform="translate(142.715342, 228.205529)"><g><path d="M 22.03125 -33.40625 L 22.03125 -29.140625 L 9.078125 -29.140625 L 9.078125 -19.015625 L 20.59375 -19.015625 L 20.59375 -14.78125 L 9.078125 -14.78125 L 9.078125 -4.265625 L 22.03125 -4.265625 L 22.03125 0 L 3.59375 0 L 3.59375 -33.40625 Z M 22.03125 -33.40625 "/></g></g></g><g  fill-opacity="1"><g transform="translate(167.861203, 228.205529)"><g><path d="M 18.5 0.28125 C 13.9375 0.28125 10.007812 -1.316406 6.71875 -4.515625 C 3.425781 -7.710938 1.78125 -11.78125 1.78125 -16.71875 C 1.78125 -21.664062 3.425781 -25.75 6.71875 -28.96875 C 10.007812 -32.1875 14.039062 -33.796875 18.8125 -33.796875 C 22.363281 -33.796875 25.523438 -32.921875 28.296875 -31.171875 C 31.066406 -29.429688 33.070312 -26.960938 34.3125 -23.765625 L 27.75 -23.765625 C 25.957031 -27.117188 22.976562 -28.796875 18.8125 -28.796875 C 15.457031 -28.796875 12.710938 -27.691406 10.578125 -25.484375 C 8.453125 -23.273438 7.390625 -20.351562 7.390625 -16.71875 C 7.390625 -13.09375 8.453125 -10.175781 10.578125 -7.96875 C 12.710938 -5.757812 15.363281 -4.65625 18.53125 -4.65625 C 21.695312 -4.65625 24.210938 -5.492188 26.078125 -7.171875 C 27.953125 -8.859375 29.082031 -11.140625 29.46875 -14.015625 L 16.9375 -14.015625 L 16.9375 -18.28125 L 35.328125 -18.28125 L 35.328125 -14.015625 C 34.816406 -10.015625 33.023438 -6.628906 29.953125 -3.859375 C 26.878906 -1.097656 23.0625 0.28125 18.5 0.28125 Z M 18.5 0.28125 "/></g></g></g><g  fill-opacity="1"><g transform="translate(204.956147, 228.205529)"><g><path d="M 3.59375 0 L 3.59375 -33.359375 L 9.078125 -33.359375 L 9.078125 0 Z M 3.59375 0 "/></g></g></g><g  fill-opacity="1"><g transform="translate(217.625053, 228.205529)"><g><path d="M 13.96875 -29.328125 C 12.332031 -29.328125 11.003906 -28.910156 9.984375 -28.078125 C 8.960938 -27.242188 8.453125 -26.035156 8.453125 -24.453125 C 8.453125 -22.867188 9.054688 -21.660156 10.265625 -20.828125 C 11.484375 -19.992188 12.957031 -19.382812 14.6875 -19 C 16.414062 -18.625 18.144531 -18.1875 19.875 -17.6875 C 21.601562 -17.1875 23.070312 -16.265625 24.28125 -14.921875 C 25.5 -13.578125 26.109375 -11.671875 26.109375 -9.203125 C 26.109375 -6.742188 25.066406 -4.535156 22.984375 -2.578125 C 20.910156 -0.628906 18.128906 0.34375 14.640625 0.34375 C 11.148438 0.34375 8.316406 -0.472656 6.140625 -2.109375 C 3.960938 -3.742188 2.875 -6 2.875 -8.875 L 8.734375 -8.875 C 8.859375 -7.40625 9.398438 -6.238281 10.359375 -5.375 C 11.328125 -4.507812 12.738281 -4.078125 14.59375 -4.078125 C 16.445312 -4.078125 17.910156 -4.554688 18.984375 -5.515625 C 20.054688 -6.472656 20.59375 -7.609375 20.59375 -8.921875 C 20.59375 -10.234375 20.265625 -11.257812 19.609375 -12 C 18.953125 -12.738281 18.101562 -13.289062 17.0625 -13.65625 C 16.019531 -14.019531 14.875 -14.347656 13.625 -14.640625 C 12.382812 -14.929688 11.128906 -15.265625 9.859375 -15.640625 C 8.597656 -16.023438 7.445312 -16.519531 6.40625 -17.125 C 5.363281 -17.738281 4.515625 -18.628906 3.859375 -19.796875 C 3.203125 -20.960938 2.875 -22.394531 2.875 -24.09375 C 2.875 -27.007812 3.921875 -29.351562 6.015625 -31.125 C 8.117188 -32.90625 10.84375 -33.796875 14.1875 -33.796875 C 17.53125 -33.796875 20.203125 -33.023438 22.203125 -31.484375 C 24.203125 -29.953125 25.3125 -27.726562 25.53125 -24.8125 L 19.484375 -24.8125 C 19.359375 -26.09375 18.816406 -27.164062 17.859375 -28.03125 C 16.898438 -28.894531 15.601562 -29.328125 13.96875 -29.328125 Z M 13.96875 -29.328125 "/></g></g></g><g  fill-opacity="1"><g transform="translate(246.609983, 228.205529)"><g><path d="M 1.875 -29.09375 L 1.875 -33.359375 L 25.15625 -33.359375 L 25.15625 -29.09375 L 16.265625 -29.09375 L 16.265625 0 L 10.796875 0 L 10.796875 -29.09375 Z M 1.875 -29.09375 "/></g></g></g><g  fill-opacity="1"><g transform="translate(273.675383, 228.205529)"><g><path d="M 9.078125 -13.53125 L 9.078125 0 L 3.59375 0 L 3.59375 -33.359375 L 15.125 -33.359375 C 18.894531 -33.359375 21.800781 -32.421875 23.84375 -30.546875 C 25.894531 -28.679688 26.921875 -26.304688 26.921875 -23.421875 C 26.921875 -21.179688 26.238281 -19.164062 24.875 -17.375 C 23.519531 -15.582031 21.4375 -14.414062 18.625 -13.875 L 27.453125 0 L 20.78125 0 L 12.4375 -13.53125 Z M 9.078125 -29.09375 L 9.078125 -17.8125 L 15.125 -17.8125 C 17.195312 -17.8125 18.742188 -18.304688 19.765625 -19.296875 C 20.796875 -20.285156 21.3125 -21.664062 21.3125 -23.4375 C 21.3125 -25.21875 20.796875 -26.601562 19.765625 -27.59375 C 18.742188 -28.59375 17.195312 -29.09375 15.125 -29.09375 Z M 9.078125 -29.09375 "/></g></g></g><g  fill-opacity="1"><g transform="translate(304.003987, 228.205529)"><g><path d="M 18.8125 -4.609375 C 22.175781 -4.609375 24.921875 -5.71875 27.046875 -7.9375 C 29.171875 -10.164062 30.234375 -13.09375 30.234375 -16.71875 C 30.234375 -20.351562 29.171875 -23.273438 27.046875 -25.484375 C 24.921875 -27.691406 22.175781 -28.796875 18.8125 -28.796875 C 15.457031 -28.796875 12.710938 -27.691406 10.578125 -25.484375 C 8.453125 -23.273438 7.390625 -20.351562 7.390625 -16.71875 C 7.390625 -13.09375 8.453125 -10.164062 10.578125 -7.9375 C 12.710938 -5.71875 15.457031 -4.609375 18.8125 -4.609375 Z M 18.828125 0.34375 C 14.046875 0.34375 10.007812 -1.265625 6.71875 -4.484375 C 3.425781 -7.703125 1.78125 -11.78125 1.78125 -16.71875 C 1.78125 -21.664062 3.425781 -25.75 6.71875 -28.96875 C 10.007812 -32.1875 14.046875 -33.796875 18.828125 -33.796875 C 23.617188 -33.796875 27.65625 -32.1875 30.9375 -28.96875 C 34.21875 -25.75 35.859375 -21.664062 35.859375 -16.71875 C 35.859375 -11.78125 34.21875 -7.703125 30.9375 -4.484375 C 27.65625 -1.265625 23.617188 0.34375 18.828125 0.34375 Z M 18.828125 0.34375 "/></g></g></g></svg>