<svg xmlns="http://www.w3.org/2000/svg" xmlns:xlink="http://www.w3.org/1999/xlink" zoomAndPan="magnify" fill="#fff" viewBox="0 0 432 287.999989" height="85" preserveAspectRatio="xMidYMid meet" version="1.0"><defs><g/><clipPath id="571f2beb11"><path d="M 157.9375 59 L 274 59 L 274 183.972656 L 157.9375 183.972656 Z M 157.9375 59 " clip-rule="nonzero"/></clipPath></defs><g  fill-opacity="1"><g transform="translate(38.01288, 239.649662)"><g><path d="M 3.59375 0 L 3.59375 -33.359375 L 9.078125 -33.359375 L 9.078125 0 Z M 3.59375 0 "/></g></g></g><g  fill-opacity="1"><g transform="translate(50.684853, 239.649662)"><g><path d="M 25.53125 -33.40625 L 31.015625 -33.40625 L 31.015625 0 L 25.53125 0 L 9.078125 -24.90625 L 9.078125 0 L 3.59375 0 L 3.59375 -33.40625 L 9.078125 -33.40625 L 25.53125 -8.546875 Z M 25.53125 -33.40625 "/></g></g></g><g  fill-opacity="1"><g transform="translate(85.292791, 239.649662)"><g><path d="M 3.59375 0 L 3.59375 -33.359375 L 9.078125 -33.359375 L 9.078125 0 Z M 3.59375 0 "/></g></g></g><g  fill-opacity="1"><g transform="translate(97.964764, 239.649662)"><g><path d="M 18.8125 0.28125 C 14.039062 0.28125 10.007812 -1.316406 6.71875 -4.515625 C 3.425781 -7.710938 1.78125 -11.78125 1.78125 -16.71875 C 1.78125 -21.664062 3.425781 -25.75 6.71875 -28.96875 C 10.007812 -32.1875 14.039062 -33.796875 18.8125 -33.796875 C 22.363281 -33.796875 25.523438 -32.921875 28.296875 -31.171875 C 31.066406 -29.429688 33.070312 -26.960938 34.3125 -23.765625 L 27.75 -23.765625 C 25.957031 -27.117188 22.976562 -28.796875 18.8125 -28.796875 C 15.457031 -28.796875 12.710938 -27.691406 10.578125 -25.484375 C 8.453125 -23.273438 7.390625 -20.351562 7.390625 -16.71875 C 7.390625 -13.09375 8.453125 -10.175781 10.578125 -7.96875 C 12.710938 -5.757812 15.457031 -4.65625 18.8125 -4.65625 C 22.976562 -4.65625 25.957031 -6.335938 27.75 -9.703125 L 34.3125 -9.703125 C 33.070312 -6.492188 31.066406 -4.023438 28.296875 -2.296875 C 25.523438 -0.578125 22.363281 0.28125 18.8125 0.28125 Z M 18.8125 0.28125 "/></g></g></g><g  fill-opacity="1"><g transform="translate(135.068693, 239.649662)"><g><path d="M 3.59375 0 L 3.59375 -33.359375 L 9.078125 -33.359375 L 9.078125 0 Z M 3.59375 0 "/></g></g></g><g  fill-opacity="1"><g transform="translate(147.740667, 239.649662)"><g><path d="M 26.109375 0 L 23.71875 -6.8125 L 9.75 -6.8125 L 7.34375 0 L 1.625 0 L 13.578125 -33.40625 L 19.921875 -33.40625 L 31.875 0 Z M 11.234375 -11.09375 L 22.21875 -11.09375 L 16.75 -26.78125 Z M 11.234375 -11.09375 "/></g></g></g><g  fill-opacity="1"><g transform="translate(181.196608, 239.649662)"><g><path d="M 9.078125 -13.53125 L 9.078125 0 L 3.59375 0 L 3.59375 -33.359375 L 15.125 -33.359375 C 18.894531 -33.359375 21.800781 -32.421875 23.84375 -30.546875 C 25.894531 -28.679688 26.921875 -26.304688 26.921875 -23.421875 C 26.921875 -21.179688 26.238281 -19.164062 24.875 -17.375 C 23.519531 -15.582031 21.4375 -14.414062 18.625 -13.875 L 27.453125 0 L 20.78125 0 L 12.4375 -13.53125 Z M 9.078125 -29.09375 L 9.078125 -17.8125 L 15.125 -17.8125 C 17.195312 -17.8125 18.742188 -18.304688 19.765625 -19.296875 C 20.796875 -20.285156 21.3125 -21.664062 21.3125 -23.4375 C 21.3125 -25.21875 20.796875 -26.601562 19.765625 -27.59375 C 18.742188 -28.59375 17.195312 -29.09375 15.125 -29.09375 Z M 9.078125 -29.09375 "/></g></g></g><g  fill-opacity="1"><g transform="translate(211.532558, 239.649662)"><g/></g></g><g  fill-opacity="1"><g transform="translate(225.932531, 239.649662)"><g><path d="M 13.96875 -29.328125 C 12.332031 -29.328125 11.003906 -28.910156 9.984375 -28.078125 C 8.960938 -27.242188 8.453125 -26.035156 8.453125 -24.453125 C 8.453125 -22.867188 9.054688 -21.660156 10.265625 -20.828125 C 11.484375 -19.992188 12.957031 -19.382812 14.6875 -19 C 16.414062 -18.625 18.144531 -18.1875 19.875 -17.6875 C 21.601562 -17.1875 23.070312 -16.265625 24.28125 -14.921875 C 25.5 -13.578125 26.109375 -11.671875 26.109375 -9.203125 C 26.109375 -6.742188 25.066406 -4.535156 22.984375 -2.578125 C 20.910156 -0.628906 18.128906 0.34375 14.640625 0.34375 C 11.148438 0.34375 8.316406 -0.472656 6.140625 -2.109375 C 3.960938 -3.742188 2.875 -6 2.875 -8.875 L 8.734375 -8.875 C 8.859375 -7.40625 9.398438 -6.238281 10.359375 -5.375 C 11.328125 -4.507812 12.738281 -4.078125 14.59375 -4.078125 C 16.445312 -4.078125 17.910156 -4.554688 18.984375 -5.515625 C 20.054688 -6.472656 20.59375 -7.609375 20.59375 -8.921875 C 20.59375 -10.234375 20.265625 -11.257812 19.609375 -12 C 18.953125 -12.738281 18.101562 -13.289062 17.0625 -13.65625 C 16.019531 -14.019531 14.875 -14.347656 13.625 -14.640625 C 12.382812 -14.929688 11.128906 -15.265625 9.859375 -15.640625 C 8.597656 -16.023438 7.445312 -16.519531 6.40625 -17.125 C 5.363281 -17.738281 4.515625 -18.628906 3.859375 -19.796875 C 3.203125 -20.960938 2.875 -22.394531 2.875 -24.09375 C 2.875 -27.007812 3.921875 -29.351562 6.015625 -31.125 C 8.117188 -32.90625 10.84375 -33.796875 14.1875 -33.796875 C 17.53125 -33.796875 20.203125 -33.023438 22.203125 -31.484375 C 24.203125 -29.953125 25.3125 -27.726562 25.53125 -24.8125 L 19.484375 -24.8125 C 19.359375 -26.09375 18.816406 -27.164062 17.859375 -28.03125 C 16.898438 -28.894531 15.601562 -29.328125 13.96875 -29.328125 Z M 13.96875 -29.328125 "/></g></g></g><g  fill-opacity="1"><g transform="translate(254.924476, 239.649662)"><g><path d="M 22.03125 -33.40625 L 22.03125 -29.140625 L 9.078125 -29.140625 L 9.078125 -19.015625 L 20.59375 -19.015625 L 20.59375 -14.78125 L 9.078125 -14.78125 L 9.078125 -4.265625 L 22.03125 -4.265625 L 22.03125 0 L 3.59375 0 L 3.59375 -33.40625 Z M 22.03125 -33.40625 "/></g></g></g><g  fill-opacity="1"><g transform="translate(280.076437, 239.649662)"><g><path d="M 13.96875 -29.328125 C 12.332031 -29.328125 11.003906 -28.910156 9.984375 -28.078125 C 8.960938 -27.242188 8.453125 -26.035156 8.453125 -24.453125 C 8.453125 -22.867188 9.054688 -21.660156 10.265625 -20.828125 C 11.484375 -19.992188 12.957031 -19.382812 14.6875 -19 C 16.414062 -18.625 18.144531 -18.1875 19.875 -17.6875 C 21.601562 -17.1875 23.070312 -16.265625 24.28125 -14.921875 C 25.5 -13.578125 26.109375 -11.671875 26.109375 -9.203125 C 26.109375 -6.742188 25.066406 -4.535156 22.984375 -2.578125 C 20.910156 -0.628906 18.128906 0.34375 14.640625 0.34375 C 11.148438 0.34375 8.316406 -0.472656 6.140625 -2.109375 C 3.960938 -3.742188 2.875 -6 2.875 -8.875 L 8.734375 -8.875 C 8.859375 -7.40625 9.398438 -6.238281 10.359375 -5.375 C 11.328125 -4.507812 12.738281 -4.078125 14.59375 -4.078125 C 16.445312 -4.078125 17.910156 -4.554688 18.984375 -5.515625 C 20.054688 -6.472656 20.59375 -7.609375 20.59375 -8.921875 C 20.59375 -10.234375 20.265625 -11.257812 19.609375 -12 C 18.953125 -12.738281 18.101562 -13.289062 17.0625 -13.65625 C 16.019531 -14.019531 14.875 -14.347656 13.625 -14.640625 C 12.382812 -14.929688 11.128906 -15.265625 9.859375 -15.640625 C 8.597656 -16.023438 7.445312 -16.519531 6.40625 -17.125 C 5.363281 -17.738281 4.515625 -18.628906 3.859375 -19.796875 C 3.203125 -20.960938 2.875 -22.394531 2.875 -24.09375 C 2.875 -27.007812 3.921875 -29.351562 6.015625 -31.125 C 8.117188 -32.90625 10.84375 -33.796875 14.1875 -33.796875 C 17.53125 -33.796875 20.203125 -33.023438 22.203125 -31.484375 C 24.203125 -29.953125 25.3125 -27.726562 25.53125 -24.8125 L 19.484375 -24.8125 C 19.359375 -26.09375 18.816406 -27.164062 17.859375 -28.03125 C 16.898438 -28.894531 15.601562 -29.328125 13.96875 -29.328125 Z M 13.96875 -29.328125 "/></g></g></g><g  fill-opacity="1"><g transform="translate(309.06837, 239.649662)"><g><path d="M 3.59375 0 L 3.59375 -33.359375 L 9.078125 -33.359375 L 9.078125 0 Z M 3.59375 0 "/></g></g></g><g  fill-opacity="1"><g transform="translate(321.740343, 239.649662)"><g><path d="M 18.8125 -4.609375 C 22.175781 -4.609375 24.921875 -5.71875 27.046875 -7.9375 C 29.171875 -10.164062 30.234375 -13.09375 30.234375 -16.71875 C 30.234375 -20.351562 29.171875 -23.273438 27.046875 -25.484375 C 24.921875 -27.691406 22.175781 -28.796875 18.8125 -28.796875 C 15.457031 -28.796875 12.710938 -27.691406 10.578125 -25.484375 C 8.453125 -23.273438 7.390625 -20.351562 7.390625 -16.71875 C 7.390625 -13.09375 8.453125 -10.164062 10.578125 -7.9375 C 12.710938 -5.71875 15.457031 -4.609375 18.8125 -4.609375 Z M 18.828125 0.34375 C 14.046875 0.34375 10.007812 -1.265625 6.71875 -4.484375 C 3.425781 -7.703125 1.78125 -11.78125 1.78125 -16.71875 C 1.78125 -21.664062 3.425781 -25.75 6.71875 -28.96875 C 10.007812 -32.1875 14.046875 -33.796875 18.828125 -33.796875 C 23.617188 -33.796875 27.65625 -32.1875 30.9375 -28.96875 C 34.21875 -25.75 35.859375 -21.664062 35.859375 -16.71875 C 35.859375 -11.78125 34.21875 -7.703125 30.9375 -4.484375 C 27.65625 -1.265625 23.617188 0.34375 18.828125 0.34375 Z M 13.15625 -39.3125 L 23.765625 -45.171875 L 23.765625 -40.515625 L 13.15625 -35.28125 Z M 13.15625 -39.3125 "/></g></g></g><g  fill-opacity="1"><g transform="translate(359.372291, 239.649662)"><g><path d="M 25.53125 -33.40625 L 31.015625 -33.40625 L 31.015625 0 L 25.53125 0 L 9.078125 -24.90625 L 9.078125 0 L 3.59375 0 L 3.59375 -33.40625 L 9.078125 -33.40625 L 25.53125 -8.546875 Z M 25.53125 -33.40625 "/></g></g></g><g clip-path="url(#571f2beb11)"><path  d="M 202.308594 59.1875 C 187.644531 59.1875 175.6875 71.152344 175.6875 85.824219 C 175.6875 100.5 187.644531 112.464844 202.308594 112.464844 C 216.972656 112.464844 228.929688 100.5 228.929688 85.824219 C 228.929688 71.152344 216.972656 59.1875 202.308594 59.1875 Z M 202.308594 112.464844 C 177.835938 112.464844 157.9375 132.375 157.9375 156.867188 L 166.8125 156.867188 C 166.8125 137.265625 182.722656 121.347656 202.308594 121.347656 C 210.558594 121.347656 218.046875 124.292969 224.078125 128.976562 L 230.285156 122.664062 C 222.621094 116.421875 212.953125 112.464844 202.308594 112.464844 Z M 202.308594 68.066406 C 212.152344 68.066406 220.058594 75.972656 220.058594 85.824219 C 220.058594 95.675781 212.152344 103.585938 202.308594 103.585938 C 192.464844 103.585938 184.5625 95.675781 184.5625 85.824219 C 184.5625 75.972656 192.464844 68.066406 202.308594 68.066406 Z M 257.355469 112.5 C 254.480469 112.535156 251.601562 113.644531 249.453125 115.863281 L 208.0625 157.976562 L 201.894531 183.921875 L 227.820312 177.78125 L 228.6875 176.878906 L 269.9375 136.332031 C 274.339844 132.03125 274.410156 124.78125 270.007812 120.410156 L 265.363281 115.726562 C 263.179688 113.542969 260.269531 112.464844 257.355469 112.5 Z M 257.425781 121.3125 C 258.015625 121.3125 258.605469 121.554688 259.089844 122.039062 L 263.734375 126.6875 C 264.703125 127.625 264.703125 129.046875 263.734375 130.019531 L 223.386719 169.664062 L 213.816406 171.988281 L 216.105469 162.414062 L 255.796875 122.039062 C 256.246094 121.554688 256.835938 121.3125 257.425781 121.3125 Z M 257.425781 121.3125 " fill-opacity="1" fill-rule="nonzero"/></g></svg>