<?xml version="1.0" standalone="no"?>
<!DOCTYPE svg PUBLIC "-//W3C//DTD SVG 20010904//EN"
				"http://www.w3.org/TR/2001/REC-SVG-20010904/DTD/svg10.dtd">
<svg version="1.0" xmlns="http://www.w3.org/2000/svg"
	 width="70.000000pt" height="70.000000pt" viewBox="1 1 349.000000 337.000000"
	 preserveAspectRatio="xMidYMid meet">

	<g transform="translate(0.000000,337.000000) scale(0.100000,-0.100000)"
	   fill="#FFE033" stroke="none">
		<path d="M1119 2416 c-343 -525 -627 -949 -630 -943 -13 23 -319 1025 -319
1043 0 16 -83 90 -123 110 l-49 25 8 -23 c29 -94 434 -1410 434 -1414 0 -2
124 -3 275 -1 227 2 277 5 289 17 8 8 124 182 257 385 398 610 482 736 488
730 3 -4 168 -255 366 -558 229 -350 370 -556 385 -564 18 -9 98 -13 283 -13
l257 0 10 23 c6 12 82 254 169 537 222 719 269 875 266 878 -6 6 -112 -58
-132 -80 -14 -16 -65 -166 -153 -453 -72 -236 -147 -481 -167 -543 l-35 -113
-33 48 c-17 26 -296 453 -620 948 -323 495 -591 903 -595 908 -3 4 -287 -422
-631 -947z m1219 -171 l591 -900 -182 -3 c-177 -2 -182 -2 -203 20 -12 13
-194 286 -404 608 -210 322 -385 589 -390 593 -4 4 -182 -259 -395 -585 -213
-326 -397 -603 -409 -616 -21 -22 -26 -22 -204 -20 l-181 3 501 765 c275 421
541 827 591 903 49 75 91 136 92 135 2 -2 269 -408 593 -903z"/>
		<path d="M3051 2395 c-97 -55 -98 -57 -141 -192 -59 -184 -59 -187 -14 -255
21 -32 40 -56 42 -53 6 6 162 518 159 521 -2 2 -22 -8 -46 -21z"/>
		<path d="M392 2399 c3 -8 22 -68 42 -134 21 -66 55 -178 77 -248 l40 -129 35
49 c19 26 37 58 41 71 3 14 -11 75 -38 158 -54 168 -86 210 -178 239 -18 5
-23 4 -19 -6z"/>
		<path d="M1484 1622 l-260 -397 515 -3 c283 -1 516 0 519 3 4 3 -285 451 -473
732 l-41 62 -260 -397z m556 -277 c0 -3 -133 -5 -296 -5 -163 0 -294 4 -292 8
2 5 68 109 147 231 l145 221 148 -225 c81 -124 148 -228 148 -230z"/>
		<path d="M25 980 c26 -28 34 -30 97 -30 l68 0 0 -160 0 -160 60 0 60 0 0 160
0 160 68 1 c62 0 69 2 90 30 l24 29 -248 0 -248 0 29 -30z"/>
		<path d="M500 820 l0 -190 60 0 60 0 0 160 0 160 100 0 100 0 0 -40 0 -40 -90
0 c-49 0 -90 -4 -90 -8 0 -5 44 -59 97 -120 l97 -112 69 0 69 0 -44 51 c-23
28 -58 68 -76 90 l-34 39 61 0 61 0 0 100 0 100 -220 0 -220 0 0 -190z"/>
		<path d="M1000 820 l0 -190 60 0 60 0 0 190 0 190 -60 0 -60 0 0 -190z"/>
		<path d="M1170 820 l0 -190 55 0 55 0 0 90 0 90 119 0 120 0 21 30 21 30 -140
0 -141 0 0 40 0 40 123 0 123 0 29 30 29 30 -207 0 -207 0 0 -190z"/>
		<path d="M1610 870 l0 -139 43 -50 42 -50 173 0 172 -1 0 190 0 190 -215 0
-215 0 0 -140z m310 -50 l0 -130 -69 0 c-69 0 -70 0 -100 39 -30 37 -31 43
-31 130 l0 91 100 0 100 0 0 -130z"/>
		<path d="M2080 820 l0 -190 60 0 60 0 0 160 0 160 100 0 100 0 0 -40 0 -39
-96 -3 -96 -3 103 -117 102 -118 69 0 70 0 -77 88 -77 87 61 3 61 3 0 99 0
100 -220 0 -220 0 0 -190z"/>
		<path d="M2570 820 l0 -190 188 0 c184 0 189 1 210 23 12 13 22 26 22 30 0 4
-67 7 -150 7 l-150 0 0 130 0 130 128 0 c110 0 131 3 144 18 37 43 40 42 -181
42 l-211 0 0 -190z"/>
		<path d="M3030 820 l0 -190 210 0 c116 0 210 4 210 8 0 5 -10 18 -23 30 -21
20 -34 22 -150 22 l-127 0 0 50 0 50 140 0 140 0 0 30 0 30 -140 0 -140 0 0
50 0 50 128 0 c121 0 130 1 150 23 12 13 22 26 22 30 0 4 -94 7 -210 7 l-210
0 0 -190z"/>
		<path d="M447 352 c-25 -26 -27 -35 -27 -110 l0 -82 155 0 155 0 0 -39 c0 -21
-6 -43 -13 -49 -8 -7 -73 -13 -161 -14 l-148 -3 22 -27 21 -28 174 0 174 0 25
33 c23 30 26 44 26 110 l0 77 -156 0 -155 0 3 48 3 47 131 3 c130 3 131 3 159
32 l29 30 -195 0 -195 0 -27 -28z"/>
		<path d="M890 190 l0 -190 60 0 60 0 0 65 0 65 150 0 150 0 0 125 0 125 -210
0 -210 0 0 -190z m300 65 l0 -65 -90 0 -90 0 0 65 0 65 90 0 90 0 0 -65z"/>
		<path d="M1350 244 l0 -135 47 -55 47 -54 168 0 168 0 0 190 0 190 -215 0
-215 0 0 -136z m320 -54 l0 -130 -67 0 c-62 0 -70 2 -100 32 -33 32 -33 32
-33 130 l0 98 100 0 100 0 0 -130z"/>
		<path d="M1820 190 l0 -190 60 0 60 0 0 160 0 160 100 0 100 0 0 -40 0 -40
-91 0 c-53 0 -89 -4 -87 -9 2 -6 47 -60 101 -120 l98 -111 65 0 c76 0 76 -4
-13 96 -35 39 -63 74 -63 78 0 3 25 6 55 6 l55 0 0 100 0 100 -220 0 -220 0 0
-190z"/>
		<path d="M2315 350 c26 -28 34 -30 97 -30 l68 0 0 -160 0 -161 58 3 57 3 3
158 3 157 67 0 c64 0 70 2 90 30 l23 30 -248 0 -247 0 29 -30z"/>
		<path d="M2806 349 c-23 -27 -26 -39 -26 -110 l0 -79 155 0 155 0 0 -34 c0
-67 4 -66 -166 -66 l-155 0 23 -30 22 -30 171 0 171 0 27 28 c25 26 27 35 27
110 l0 82 -155 0 -155 0 0 34 c0 67 -1 66 144 67 l131 0 23 30 24 29 -195 0
-195 0 -26 -31z"/>
	</g>
</svg>
