<svg version="1.2" xmlns="http://www.w3.org/2000/svg" viewBox="0 0 550 240" height="90">
	<title>logo triforce shop-svg</title>
	<style>
		.s0 { fill: #ffffff } 
	</style>
	<path id="Layer" fill-rule="evenodd" class="s0" d="m135.5 66.6q0.2 2.4 0.7 4.8 0.4 2.3 1.1 4.6 0.7 2.3 1.5 4.6 0.9 2.2 1.9 4.4 1.1 2.2 2.3 4.2 1.2 2.1 2.6 4.1 1.4 1.9 2.9 3.8 1.6 1.8 3.3 3.5 1.7 1.7 3.5 3.3 1.9 1.5 3.8 2.9 2 1.4 4.1 2.6 2.1 1.2 4.2 2.3 2.2 1 4.5 1.9 2.2 0.8 4.5 1.5 2.3 0.6 4.7 1.1 2.4 0.5 4.8 0.7 25.9 2.6 51.8 2.8-25.9 0.2-51.8 2.8-2.4 0.2-4.8 0.7-2.4 0.5-4.7 1.1-2.3 0.7-4.5 1.5-2.3 0.9-4.5 1.9-2.1 1.1-4.2 2.3-2.1 1.2-4.1 2.6-1.9 1.4-3.8 2.9-1.8 1.6-3.5 3.3-1.7 1.7-3.3 3.5-1.5 1.9-2.9 3.8-1.4 2-2.6 4.1-1.2 2-2.3 4.2-1 2.2-1.9 4.4-0.8 2.3-1.5 4.6-0.7 2.3-1.1 4.6-0.5 2.4-0.7 4.8-2.6 25.8-2.8 51.7-0.3-25.9-2.8-51.7-0.3-2.4-0.8-4.8-0.4-2.3-1.1-4.6-0.6-2.3-1.5-4.6-0.8-2.2-1.9-4.4-1-2.2-2.3-4.2-1.2-2.1-2.6-4.1-1.4-1.9-2.9-3.8-1.6-1.8-3.3-3.5-1.7-1.7-3.5-3.3-1.9-1.5-3.8-2.9-2-1.4-4.1-2.6-2-1.2-4.2-2.3-2.2-1-4.4-1.9-2.3-0.8-4.6-1.5-2.3-0.6-4.7-1.1-2.4-0.5-4.8-0.7-25.8-2.6-51.8-2.8 26-0.2 51.8-2.8 2.4-0.3 4.8-0.7 2.4-0.5 4.7-1.1 2.3-0.7 4.6-1.5 2.2-0.9 4.4-1.9 2.2-1.1 4.2-2.3 2.1-1.2 4.1-2.6 1.9-1.4 3.8-2.9 1.8-1.6 3.5-3.3 1.7-1.7 3.3-3.5 1.5-1.9 2.9-3.8 1.4-2 2.6-4.1 1.3-2 2.3-4.2 1-2.2 1.9-4.4 0.9-2.3 1.5-4.6 0.7-2.3 1.1-4.6 0.5-2.4 0.8-4.8 2.5-25.8 2.8-51.7 0.2 25.9 2.8 51.7zm102.2 53.1q4.7 0 9.4 0-4.7 0-9.4 0zm-105 104.8q0 4.7 0 9.4-0.1-4.7 0-9.4zm-105.1-104.8q-4.7 0-9.4 0 4.7 0 9.4 0zm105.1-104.8q-0.1-4.7 0-9.4 0 4.7 0 9.4zm130.5 135.7q0.3 2.4 1 4.8 0.7 2.3 1.7 4.5 1.1 2.2 2.5 4.2 1.4 2 3.1 3.7 1.7 1.8 3.7 3.2 2 1.4 4.2 2.4 2.2 1.1 4.6 1.7 2.3 0.7 4.8 1 13.1 1.3 26.2 1.4-13.1 0.1-26.2 1.4-2.5 0.3-4.8 0.9-2.4 0.7-4.6 1.8-2.2 1-4.2 2.4-2 1.4-3.7 3.1-1.7 1.8-3.1 3.8-1.4 2-2.5 4.1-1 2.2-1.7 4.6-0.7 2.3-1 4.8-1.3 13-1.4 26.2-0.1-13.2-1.4-26.2-0.2-2.5-0.9-4.8-0.7-2.4-1.7-4.6-1.1-2.1-2.5-4.1-1.4-2-3.1-3.8-1.8-1.7-3.8-3.1-2-1.4-4.2-2.4-2.2-1.1-4.5-1.8-2.4-0.6-4.8-0.9-13.1-1.3-26.3-1.4 13.2-0.1 26.3-1.4 2.4-0.3 4.8-1 2.3-0.6 4.5-1.7 2.2-1 4.2-2.4 2-1.4 3.8-3.2 1.7-1.7 3.1-3.7 1.4-2 2.5-4.2 1-2.2 1.7-4.5 0.7-2.4 0.9-4.8 1.3-13.1 1.4-26.2 0.1 13.1 1.4 26.2zm51.8 26.9q2.4 0 4.8 0-2.4 0-4.8 0zm-53.2 53.1q0.1 2.3 0 4.7 0-2.4 0-4.7zm-53.2-53.1q-2.3 0-4.7 0 2.4 0 4.7 0zm53.2-53.1q0-2.4 0-4.7 0.1 2.3 0 4.7zm-42.1-87.8q0.2 1.5 0.6 2.9 0.4 1.4 1 2.8 0.7 1.3 1.5 2.5 0.9 1.2 2 2.3 1 1 2.2 1.9 1.2 0.9 2.6 1.5 1.3 0.6 2.8 1.1 1.4 0.4 2.9 0.5 8 0.8 16 0.9-8 0-16 0.8-1.5 0.2-2.9 0.6-1.5 0.4-2.8 1.1-1.4 0.6-2.6 1.5-1.2 0.8-2.2 1.9-1.1 1-2 2.2-0.8 1.3-1.5 2.6-0.6 1.3-1 2.8-0.4 1.4-0.6 2.9-0.8 8-0.9 15.9 0-7.9-0.8-15.9-0.2-1.5-0.6-2.9-0.4-1.5-1-2.8-0.7-1.3-1.6-2.6-0.8-1.2-1.9-2.2-1-1.1-2.2-1.9-1.3-0.9-2.6-1.5-1.3-0.7-2.8-1.1-1.4-0.4-2.9-0.6-8-0.8-16.1-0.8 8.1-0.1 16.1-0.9 1.5-0.1 2.9-0.5 1.5-0.5 2.8-1.1 1.3-0.6 2.6-1.5 1.2-0.9 2.2-1.9 1.1-1.1 1.9-2.3 0.9-1.2 1.5-2.5 0.7-1.4 1.1-2.8 0.4-1.4 0.6-2.9 0.8-8 0.8-16 0.1 8 0.9 16zm31.6 16.4q1.5 0 2.9 0-1.4 0-2.9 0zm-32.5 32.3q0.1 1.5 0 3 0-1.5 0-3zm-32.5-32.3q-1.4 0-2.8 0 1.4 0 2.8 0zm32.5-32.4q0-1.5 0-2.9 0.1 1.4 0 2.9zm36.8 60.3h11.7l4.6 14.7 5.1 15.9 5.6-15.9 5.1-14.7h10.5l5.2 14.7 5.5 16.1 5.2-16.1 4.7-14.7h11.6l-15.7 48.3h-10.7l-11-31.3-11 31.3h-10.8zm78.1 30.2c0-11.3 8.3-19.1 20.4-19.1 12 0 20.3 7.8 20.3 19.1 0 11.3-8.3 19.1-20.3 19.1-12.1 0-20.4-7.8-20.4-19.1zm20.4 10.1c5.8 0 9.9-4.2 9.9-10.1 0-5.9-4.1-10.1-9.9-10.1-5.9 0-10.1 4.2-10.1 10.1 0 5.9 4.2 10.1 10.1 10.1zm28.2-28.2h7.8l1 3.7c2.7-3.1 6.6-4.7 11.2-4.7 5.2 0 9.4 2.1 12 6 2.9-3.8 7.5-6 13-6 9.3 0 15.2 6.2 15.2 16.1v21.2h-10.5v-19.9c0-5.1-2.7-8.4-7-8.4-4.5 0-7.4 3.4-7.4 8.6v19.7h-10.4v-19.9c0-5.1-2.7-8.4-7-8.4-4.5 0-7.4 3.4-7.4 8.6v19.7h-10.5zm68.2 25.7c0-6.7 4.9-11.1 12.4-11.1h13.1v-1.7c0-3.5-2.8-5.9-7-5.9-3.3 0-6 1.7-6.6 4.3h-10.1c1.3-7.9 7.4-12.3 16.7-12.3 10.8 0 17.3 5.8 17.3 15.4v21.8h-7.8l-1.2-4.2c-3.1 3.2-7.5 4.9-12.9 4.9-8.6 0-13.9-4.3-13.9-11.2zm16.3 3.7c5.3 0 9.1-3.3 9.3-8.2h-10c-3.1 0-5.2 1.5-5.2 4 0 2.5 2.3 4.2 5.9 4.2zm29.3-29.4h7.8l1.1 4c2.9-3.3 7.3-5 12.1-5 9.5 0 15.2 6.3 15.2 16.4v20.8h-10.5v-19.7c0-5.4-2.7-8.5-7.2-8.5-4.8 0-8 3.5-8 9.2v19h-10.5zm-172.5 93.8h3.9c0.4 4.9 4.2 7.8 10.8 7.8 6.1 0 9.8-2.3 9.8-6.2 0-3.6-3.3-5.8-10.7-7.1-9-1.5-13.1-4.7-13.1-10 0-5.9 5-9.5 13.1-9.5 8.2 0 13.4 3.9 13.9 10.5h-3.9c-0.4-4.6-3.9-7-10-7-5.7 0-9.2 2.3-9.2 6.1 0 3.4 2.9 5.3 10.6 6.7 8.8 1.7 13.1 5.2 13.1 10.4 0 5.8-5.3 9.7-13.7 9.7-8.7 0-14.3-4.5-14.6-11.4zm37.9-39.1h3.9v21.3c2.7-4.8 7.5-7.2 13-7.2 8.9 0 14.4 6.2 14.4 16.2v19.3h-3.9v-19c0-7.9-4.2-12.8-11.1-12.8-7.3 0-12.4 5.5-12.4 13.8v18h-3.9zm39.7 33.2c0-10.6 7.5-18.1 18.2-18.1 10.7 0 18.2 7.5 18.2 18.1 0 10.7-7.5 18.2-18.2 18.2-10.7 0-18.2-7.5-18.2-18.2zm18.2 14.5c8.5 0 14.3-5.9 14.3-14.5 0-8.5-5.8-14.4-14.3-14.4-8.5 0-14.3 5.9-14.3 14.4 0 8.6 5.8 14.5 14.3 14.5zm31.2-4.7v20h-3.9v-48.1h3.3l0.4 6.9c3-4.8 8.3-7.7 14.8-7.7 10.5 0 17.7 7.6 17.7 18.1 0 10.5-7.2 18.2-17.7 18.2-6.4 0-11.6-2.8-14.6-7.4zm14.2 3.7c8.5 0 14.2-6 14.2-14.5 0-8.4-5.7-14.4-14.2-14.4-8.5 0-14.4 6-14.4 14.4 0 8.5 5.9 14.5 14.4 14.5z"/>
</svg>